<svg aria-hidden="true" style="position: absolute; width: 0; height: 0; overflow: hidden;" version="1.1" xmlns="http://www.w3.org/2000/svg" xmlns:xlink="http://www.w3.org/1999/xlink">
<defs>
<symbol id="icon-applepodcasts" viewBox="0 0 32 32">
<path fill="" style="" d="M31.367 27.736c-0.311 0.79-1.029 1.903-2.047 2.686-0.588 0.453-1.289 0.885-2.253 1.171-1.027 0.304-2.293 0.407-3.868 0.407h-14.4c-1.575 0-2.84-0.103-3.868-0.407-0.964-0.285-1.665-0.718-2.253-1.171-1.018-0.784-1.736-1.896-2.047-2.686-0.627-1.592-0.633-3.398-0.633-4.536v-14.4c0-1.138 0.006-2.944 0.633-4.536 0.311-0.79 1.029-1.903 2.047-2.686 0.588-0.453 1.289-0.885 2.253-1.171 1.027-0.304 2.293-0.407 3.868-0.407h14.4c1.575 0 2.84 0.103 3.867 0.407 0.964 0.285 1.665 0.718 2.253 1.171 1.018 0.784 1.736 1.896 2.047 2.686 0.627 1.592 0.633 3.398 0.633 4.536v14.4c-0 1.137-0.006 2.944-0.633 4.536z"></path>
<path fill="" style="" d="M18.321 18.393c-0.48-0.507-1.324-0.831-2.319-0.831s-1.839 0.325-2.319 0.831c-0.251 0.264-0.383 0.535-0.425 0.922-0.081 0.748-0.035 1.391 0.052 2.421 0.083 0.981 0.242 2.289 0.449 3.621 0.147 0.948 0.267 1.459 0.376 1.826 0.177 0.594 0.836 1.113 1.868 1.113s1.691-0.519 1.868-1.113c0.109-0.366 0.228-0.878 0.375-1.826 0.207-1.332 0.365-2.64 0.449-3.621 0.088-1.029 0.133-1.673 0.052-2.421-0.042-0.386-0.174-0.657-0.425-0.922zM13.385 13.882c0 1.446 1.172 2.619 2.619 2.619s2.619-1.172 2.619-2.619c0-1.446-1.172-2.619-2.619-2.619s-2.619 1.172-2.619 2.619zM15.972 3.547c-6.125 0.017-11.144 4.986-11.22 11.111-0.062 4.961 3.106 9.205 7.528 10.761 0.107 0.038 0.216-0.051 0.199-0.164-0.058-0.385-0.113-0.772-0.163-1.153-0.018-0.134-0.104-0.25-0.228-0.305-3.495-1.527-5.936-5.033-5.897-9.093 0.051-5.329 4.403-9.673 9.732-9.716 5.448-0.044 9.894 4.375 9.894 9.813 0 4.020-2.43 7.483-5.898 8.998-0.124 0.054-0.209 0.171-0.227 0.305-0.050 0.38-0.105 0.767-0.163 1.152-0.017 0.113 0.092 0.202 0.199 0.164 4.38-1.541 7.529-5.719 7.529-10.619-0-6.216-5.066-11.271-11.286-11.253zM15.768 8.71c3.472-0.134 6.34 2.651 6.34 6.094 0 1.751-0.742 3.332-1.927 4.445-0.101 0.094-0.155 0.228-0.147 0.366 0.024 0.419 0.015 0.826-0.013 1.285-0.008 0.122 0.13 0.201 0.231 0.132 1.988-1.359 3.296-3.643 3.296-6.228 0-4.256-3.545-7.699-7.837-7.533-3.989 0.155-7.189 3.443-7.24 7.435-0.034 2.625 1.282 4.951 3.296 6.326 0.101 0.069 0.238-0.009 0.23-0.132-0.028-0.46-0.037-0.867-0.013-1.286 0.008-0.138-0.046-0.272-0.146-0.366-1.223-1.148-1.973-2.793-1.926-4.609 0.084-3.196 2.661-5.807 5.855-5.93z"></path>
</symbol>
<symbol id="icon-sondcloud" viewBox="0 0 32 32">
<path fill="" style="" d="M31.659 16c0 8.889-7.133 16-15.767 16s-15.892-7.111-15.892-16 7.133-16 15.767-16c8.634 0 15.892 7.111 15.892 16z"></path>
<path fill="" style="" d="M4.67 17.069c0.006-0.053 0.044-0.090 0.091-0.090 0.046 0 0.083 0.037 0.090 0.090l0.196 1.277-0.196 1.255c-0.007 0.053-0.045 0.089-0.090 0.089-0.047 0-0.085-0.037-0.091-0.090l-0.166-1.255 0.166-1.277z"></path>
<path fill="" style="" d="M5.598 16.189c0.048 0 0.086 0.038 0.094 0.093l0.253 2.064-0.253 2.019c-0.008 0.055-0.047 0.093-0.094 0.093s-0.088-0.039-0.094-0.093l-0.223-2.019 0.223-2.064c0.007-0.054 0.046-0.093 0.094-0.093z"></path>
<path fill="" style="" d="M9.030 14.55c0.004-0.096 0.080-0.172 0.171-0.172s0.166 0.076 0.171 0.172l0.2 3.798-0.2 2.455v-0.001c-0.005 0.096-0.081 0.172-0.171 0.172s-0.167-0.076-0.171-0.172l-0.177-2.454 0.177-3.798z"></path>
<path fill="" style="" d="M7.252 15.83c0.006-0.076 0.063-0.133 0.133-0.133s0.127 0.057 0.133 0.132l0.227 2.517-0.227 2.435c-0.006 0.075-0.063 0.132-0.133 0.132s-0.128-0.057-0.133-0.132l-0.2-2.435 0.2-2.516z"></path>
<path fill="" style="" d="M11.257 20.762c-0.005 0.119-0.097 0.211-0.21 0.211s-0.206-0.093-0.21-0.211l-0.154-2.414 0.154-5.056c0.004-0.119 0.096-0.212 0.21-0.212s0.205 0.093 0.21 0.211l0.174 5.056-0.174 2.413z"></path>
<path fill="" style="" d="M15.112 20.694c-0.003 0.16-0.132 0.29-0.287 0.29s-0.285-0.13-0.287-0.289c0 0-0.108-2.344-0.108-2.347l0.108-5.838c0.002-0.16 0.131-0.291 0.287-0.291s0.285 0.131 0.287 0.29l0.121 5.84-0.121 2.344z"></path>
<path fill="" style="" d="M13.17 20.724c-0.004 0.141-0.113 0.251-0.249 0.251s-0.246-0.11-0.249-0.25l-0.132-2.376 0.131-5.093c0.003-0.141 0.112-0.251 0.249-0.251 0.136 0 0.245 0.11 0.249 0.251l0.148 5.093-0.148 2.377v-0.002z"></path>
<path fill="" style="" d="M8.442 20.801c-0.006 0.086-0.071 0.152-0.152 0.152-0.082 0-0.147-0.066-0.152-0.152l-0.188-2.455 0.188-2.334c0.005-0.087 0.070-0.152 0.152-0.152s0.146 0.065 0.152 0.151l0.214 2.335-0.214 2.455z"></path>
<path fill="" style="" d="M6.602 20.706c-0.007 0.065-0.055 0.113-0.114 0.113-0.060 0-0.108-0.047-0.114-0.113l-0.211-2.36 0.211-2.449c0.006-0.065 0.054-0.113 0.114-0.113s0.107 0.047 0.114 0.113l0.24 2.449-0.24 2.36z"></path>
<path fill="" style="" d="M13.601 13.443c0.003-0.152 0.121-0.271 0.268-0.271s0.264 0.119 0.268 0.271l0.134 4.908-0.134 2.361v-0.002c-0.003 0.152-0.121 0.271-0.268 0.271s-0.265-0.119-0.268-0.269l-0.12-2.361 0.12-4.907z"></path>
<path fill="" style="" d="M10.312 20.786c-0.005 0.108-0.089 0.192-0.191 0.192-0.103 0-0.187-0.084-0.191-0.191l-0.166-2.439 0.166-4.667c0.004-0.107 0.088-0.192 0.191-0.192 0.102 0 0.186 0.084 0.191 0.192l0.187 4.667-0.187 2.438z"></path>
<path fill="" style="" d="M12.21 20.748v-0c-0.004 0.129-0.105 0.23-0.229 0.23s-0.226-0.102-0.229-0.23l-0.143-2.399 0.143-5.226c0.003-0.13 0.104-0.232 0.229-0.232s0.225 0.102 0.229 0.232l0.161 5.227-0.161 2.398v0.001c0-0 0-0 0-0.001v0.001z"></path>
<path fill="" style="" d="M23.291 15.556c0.332-0.141 0.696-0.219 1.078-0.219 1.538 0 2.786 1.266 2.786 2.828s-1.247 2.827-2.786 2.827c-0.050 0-7.716-0.004-7.723-0.005-0.166-0.017-0.299-0.161-0.301-0.334v-8.973c0.002-0.165 0.058-0.25 0.268-0.332 0.541-0.212 1.154-0.338 1.782-0.338 2.569 0 4.674 1.999 4.896 4.547z"></path>
<path fill="" style="" d="M15.469 11.982c0.002-0.171 0.14-0.311 0.307-0.311s0.304 0.139 0.307 0.31l0.137 6.369-0.137 2.312v-0.003c-0.003 0.171-0.14 0.311-0.307 0.311s-0.305-0.139-0.307-0.308l-0.126-2.311 0.126-6.369z"></path>
</symbol>
<symbol id="icon-radio" viewBox="0 0 32 32">
<path fill="" style="" stroke="#363f46" stroke-linejoin="miter" stroke-linecap="round" stroke-miterlimit="4" stroke-width="2.4258" d="M15.938 30c7.767 0 14.063-6.296 14.063-14.063s-6.296-14.063-14.063-14.063c-7.767 0-14.063 6.296-14.063 14.063s6.296 14.063 14.063 14.063z"></path>
<path fill="" style="" d="M8.303 9.999c0 0-1.945 2.194-1.945 6.027s1.945 5.938 1.945 5.938z"></path>
<path fill="" stroke="" style="" stroke-linejoin="miter" stroke-linecap="round" stroke-miterlimit="4" stroke-width="2.4258" d="M8.303 9.999c0 0-1.945 2.194-1.945 6.027s1.945 5.938 1.945 5.938"></path>
<path fill="" style="" d="M23.796 9.999c0 0 1.945 2.194 1.945 6.027s-1.945 5.938-1.945 5.938z"></path>
<path fill="" stroke="" style="" stroke-linejoin="miter" stroke-linecap="round" stroke-miterlimit="4" stroke-width="2.4258" d="M23.796 9.999c0 0 1.945 2.194 1.945 6.027s-1.945 5.938-1.945 5.938"></path>
<path fill="" style="" d="M20.694 12.563c0 0 1.31 1.631 1.278 3.455-0.040 2.194-1.262 3.399-1.262 3.399z"></path>
<path fill="" stroke="" style="" stroke-linejoin="miter" stroke-linecap="round" stroke-miterlimit="4" stroke-width="2.4258" d="M20.694 12.563c0 0 1.31 1.631 1.278 3.455-0.040 2.194-1.262 3.399-1.262 3.399"></path>
<path fill="" style="" d="M11.341 12.563c0 0-1.31 1.631-1.278 3.455 0.040 2.194 1.262 3.399 1.262 3.399z"></path>
<path fill="" stroke="" style="" stroke-linejoin="miter" stroke-linecap="round" stroke-miterlimit="4" stroke-width="2.4258" d="M11.341 12.563c0 0-1.31 1.631-1.278 3.455 0.040 2.194 1.262 3.399 1.262 3.399"></path>
<path fill="" style="" d="M15.936 18.121c1.206 0 2.183-0.977 2.183-2.183s-0.977-2.183-2.183-2.183c-1.206 0-2.183 0.977-2.183 2.183s0.977 2.183 2.183 2.183z"></path>
<path fill="" style="" d="M16.305 17.977l-1.549-0.416-2.579 9.632 1.549 0.416 2.579-9.632z"></path>
<path fill="" style="" d="M15.705 17.964l1.542-0.409 2.565 9.639-1.542 0.409-2.565-9.639z"></path>
<path fill="" style="" d="M14.273 23.162l0.573-0.587 3.97 3.868-0.573 0.587-3.97-3.868z"></path>
<path fill="" style="" d="M17.635 23.183l-0.518-0.525-3.936 3.909 0.518 0.525 3.936-3.909z"></path>
</symbol>
<symbol id="icon-pockedcasts" viewBox="0 0 32 32">
<path fill="" style="" d="M16.186 0c-8.576 0-15.527 7.163-15.527 16s6.951 16 15.527 16c8.576 0 15.527-7.163 15.527-16s-6.951-16-15.527-16zM20.996 16.148c0-2.655-2.089-4.808-4.666-4.808s-4.666 2.153-4.666 4.808c0 2.655 2.089 4.808 4.666 4.808v2.748c-4.049 0-7.332-3.383-7.332-7.556s3.283-7.556 7.332-7.556c4.050 0 7.333 3.383 7.333 7.556h-2.666zM25.495 16.148c0-5.216-4.103-9.444-9.166-9.444s-9.165 4.229-9.165 9.444c0 5.216 4.103 9.444 9.165 9.444v3.148c-6.749 0-12.22-5.638-12.22-12.592s5.472-12.592 12.22-12.592c6.749 0 12.221 5.638 12.221 12.592h-3.055z"></path>
</symbol>
<symbol id="icon-spotify" viewBox="0 0 32 32">
<path fill="" style="" d="M15.999 0.053c-8.809 0-15.951 7.142-15.951 15.951s7.142 15.951 15.951 15.951c8.81 0 15.951-7.141 15.951-15.951s-7.141-15.95-15.951-15.95l0-0.001zM23.314 23.058c-0.286 0.469-0.899 0.617-1.368 0.33-3.745-2.288-8.46-2.806-14.012-1.537-0.535 0.122-1.068-0.213-1.19-0.748s0.211-1.069 0.748-1.191c6.076-1.389 11.288-0.791 15.493 1.779 0.469 0.288 0.617 0.899 0.329 1.368zM25.267 18.715c-0.36 0.586-1.126 0.77-1.71 0.41-4.288-2.636-10.823-3.399-15.895-1.86-0.658 0.199-1.352-0.172-1.552-0.829-0.198-0.658 0.173-1.351 0.829-1.551 5.793-1.758 12.995-0.906 17.918 2.119 0.585 0.36 0.77 1.126 0.41 1.71v-0zM25.434 14.192c-5.141-3.054-13.623-3.334-18.531-1.845-0.788 0.239-1.622-0.206-1.861-0.994s0.206-1.622 0.994-1.861c5.635-1.71 15.001-1.38 20.92 2.134 0.71 0.421 0.943 1.336 0.522 2.044-0.419 0.709-1.337 0.943-2.044 0.522h-0.001z"></path>
</symbol>
<symbol id="icon-logo" viewBox="0 0 155 32">
<path fill="" style="" d="M12.097 24.65c-2.398 0-4.457-0.509-6.177-1.527-1.72-1.041-3.043-2.478-3.971-4.31-0.928-1.855-1.391-3.994-1.391-6.415s0.464-4.559 1.391-6.415c0.928-1.855 2.251-3.303 3.971-4.344s3.779-1.561 6.177-1.561c2.851 0 5.181 0.713 6.992 2.138 1.833 1.403 2.975 3.383 3.428 5.939h-4.785c-0.294-1.29-0.928-2.297-1.901-3.021-0.95-0.747-2.217-1.12-3.801-1.12-2.195 0-3.914 0.747-5.159 2.24s-1.867 3.541-1.867 6.143c0 2.602 0.622 4.65 1.867 6.143 1.244 1.471 2.964 2.206 5.159 2.206 1.584 0 2.851-0.339 3.801-1.018 0.973-0.701 1.606-1.663 1.901-2.885h4.785c-0.453 2.444-1.595 4.356-3.428 5.736-1.81 1.38-4.141 2.070-6.992 2.070zM31.385 24.65c-1.448 0-2.636-0.226-3.564-0.679-0.928-0.475-1.618-1.097-2.070-1.867s-0.679-1.618-0.679-2.545c0-1.561 0.611-2.828 1.833-3.801s3.055-1.459 5.498-1.459h4.276v-0.407c0-1.154-0.328-2.002-0.984-2.545s-1.471-0.815-2.444-0.815c-0.882 0-1.652 0.215-2.308 0.645-0.656 0.407-1.063 1.018-1.222 1.833h-4.242c0.113-1.222 0.52-2.285 1.222-3.19 0.724-0.905 1.652-1.595 2.783-2.070 1.131-0.498 2.398-0.747 3.801-0.747 2.398 0 4.288 0.6 5.668 1.799s2.070 2.896 2.070 5.091v10.351h-3.699l-0.407-2.715c-0.498 0.905-1.199 1.652-2.104 2.24-0.882 0.588-2.025 0.882-3.428 0.882zM32.369 21.256c1.244 0 2.206-0.407 2.885-1.222 0.701-0.815 1.143-1.821 1.324-3.021h-3.699c-1.154 0-1.98 0.215-2.478 0.645-0.498 0.407-0.747 0.916-0.747 1.527 0 0.656 0.249 1.165 0.747 1.527s1.154 0.543 1.969 0.543zM51.448 24.65c-1.493 0-2.806-0.238-3.937-0.713-1.131-0.498-2.036-1.177-2.715-2.036s-1.086-1.855-1.222-2.987h4.378c0.136 0.656 0.498 1.222 1.086 1.697 0.611 0.453 1.392 0.679 2.342 0.679s1.64-0.192 2.070-0.577c0.452-0.385 0.679-0.826 0.679-1.324 0-0.724-0.317-1.21-0.95-1.459-0.634-0.271-1.516-0.532-2.647-0.781-0.724-0.158-1.459-0.351-2.206-0.577s-1.437-0.509-2.070-0.848c-0.611-0.362-1.109-0.815-1.493-1.358-0.385-0.566-0.577-1.256-0.577-2.070 0-1.493 0.588-2.749 1.765-3.767 1.199-1.018 2.873-1.527 5.023-1.527 1.991 0 3.575 0.464 4.752 1.392 1.199 0.928 1.912 2.206 2.138 3.835h-4.107c-0.249-1.244-1.188-1.867-2.817-1.867-0.815 0-1.448 0.158-1.901 0.475-0.43 0.317-0.645 0.713-0.645 1.188 0 0.498 0.328 0.894 0.984 1.188s1.527 0.566 2.613 0.815c1.177 0.271 2.251 0.577 3.224 0.916 0.995 0.317 1.787 0.803 2.376 1.459 0.588 0.634 0.882 1.55 0.882 2.749 0.023 1.041-0.249 1.98-0.815 2.817s-1.38 1.493-2.444 1.968c-1.063 0.475-2.319 0.713-3.767 0.713zM68.614 24.242c-1.765 0-3.179-0.43-4.242-1.29s-1.595-2.387-1.595-4.582v-7.331h-2.885v-3.631h2.885l0.509-4.514h3.835v4.514h4.548v3.631h-4.548v7.365c0 0.815 0.17 1.38 0.509 1.697 0.362 0.294 0.973 0.441 1.833 0.441h2.104v3.699h-2.953zM80.523 24.65c-1.448 0-2.636-0.226-3.564-0.679-0.928-0.475-1.618-1.097-2.070-1.867s-0.679-1.618-0.679-2.545c0-1.561 0.611-2.828 1.833-3.801s3.055-1.459 5.498-1.459h4.276v-0.407c0-1.154-0.328-2.002-0.984-2.545s-1.471-0.815-2.444-0.815c-0.882 0-1.652 0.215-2.308 0.645-0.656 0.407-1.063 1.018-1.222 1.833h-4.242c0.113-1.222 0.52-2.285 1.222-3.19 0.724-0.905 1.652-1.595 2.783-2.070 1.131-0.498 2.398-0.747 3.801-0.747 2.398 0 4.288 0.6 5.668 1.799s2.070 2.896 2.070 5.091v10.351h-3.699l-0.407-2.715c-0.498 0.905-1.199 1.652-2.104 2.24-0.882 0.588-2.025 0.882-3.428 0.882zM81.507 21.256c1.244 0 2.206-0.407 2.885-1.222 0.701-0.815 1.143-1.821 1.324-3.021h-3.699c-1.154 0-1.98 0.215-2.478 0.645-0.498 0.407-0.747 0.916-0.747 1.527 0 0.656 0.249 1.165 0.747 1.527s1.154 0.543 1.969 0.543zM96.755 24.242l-4.921-16.834h4.31l2.918 12.116 3.394-12.116h4.819l3.394 12.116 2.953-12.116h4.31l-4.955 16.834h-4.514l-3.598-12.591-3.598 12.591h-4.514zM124.937 24.65c-1.448 0-2.636-0.226-3.564-0.679-0.927-0.475-1.617-1.097-2.070-1.867s-0.679-1.618-0.679-2.545c0-1.561 0.611-2.828 1.833-3.801s3.055-1.459 5.498-1.459h4.276v-0.407c0-1.154-0.328-2.002-0.984-2.545-0.655-0.543-1.47-0.815-2.444-0.815-0.882 0-1.651 0.215-2.308 0.645-0.656 0.407-1.063 1.018-1.222 1.833h-4.242c0.113-1.222 0.521-2.285 1.222-3.19 0.724-0.905 1.652-1.595 2.783-2.070 1.132-0.498 2.399-0.747 3.801-0.747 2.399 0 4.288 0.6 5.668 1.799s2.070 2.896 2.070 5.091v10.351h-3.699l-0.407-2.715c-0.497 0.905-1.199 1.652-2.104 2.24-0.882 0.588-2.025 0.882-3.428 0.882zM125.921 21.256c1.245 0 2.206-0.407 2.885-1.222 0.702-0.815 1.143-1.821 1.324-3.021h-3.699c-1.154 0-1.979 0.215-2.478 0.645-0.497 0.407-0.747 0.916-0.747 1.527 0 0.656 0.249 1.165 0.747 1.527s1.154 0.543 1.969 0.543zM139.583 31.709l3.903-8.587h-1.018l-6.55-15.714h4.718l4.718 11.845 4.921-11.845h4.616l-10.691 24.301h-4.616z"></path>
</symbol>
<symbol id="icon-star" viewBox="0 0 34 32">
<path fill="" style="" d="M16.965 25.784l7.812 4.725c1.431 0.866 3.181-0.414 2.805-2.033l-2.071-8.885 6.908-5.986c1.261-1.092 0.584-3.162-1.073-3.294l-9.092-0.772-3.558-8.395c-0.64-1.525-2.824-1.525-3.464 0l-3.558 8.376-9.092 0.772c-1.656 0.132-2.334 2.202-1.073 3.294l6.908 5.986-2.071 8.885c-0.376 1.619 1.374 2.899 2.805 2.033l7.812-4.706z"></path>
</symbol>
<symbol id="icon-twitter" viewBox="0 0 32 32">
<path fill="" stroke="" style="" stroke-linejoin="round" stroke-linecap="round" stroke-miterlimit="4" stroke-width="2.6667" d="M30.667 4c-1.277 0.901-2.691 1.589-4.187 2.040-0.803-0.923-1.87-1.578-3.057-1.875s-2.437-0.222-3.58 0.214c-1.143 0.436-2.125 1.213-2.812 2.226s-1.047 2.211-1.031 3.435v1.333c-2.343 0.061-4.665-0.459-6.759-1.513s-3.894-2.609-5.241-4.527c0 0-5.333 12 6.667 17.333-2.746 1.864-6.017 2.799-9.333 2.667 12 6.667 26.667 0 26.667-15.333 0-0.373-0.040-0.747-0.107-1.107 1.361-1.342 2.321-3.036 2.773-4.893z"></path>
</symbol>
<symbol id="icon-instagram" viewBox="0 0 32 32">
<path fill="" stroke="" style="" stroke-linejoin="round" stroke-linecap="round" stroke-miterlimit="4" stroke-width="2.6667" d="M22.667 2.667h-13.333c-3.682 0-6.667 2.985-6.667 6.667v13.333c0 3.682 2.985 6.667 6.667 6.667h13.333c3.682 0 6.667-2.985 6.667-6.667v-13.333c0-3.682-2.985-6.667-6.667-6.667z"></path>
<path fill="" stroke="" style="" stroke-linejoin="round" stroke-linecap="round" stroke-miterlimit="4" stroke-width="2.6667" d="M21.333 15.16c0.165 1.11-0.025 2.243-0.542 3.239s-1.334 1.803-2.336 2.308c-1.002 0.504-2.138 0.68-3.245 0.502s-2.131-0.701-2.924-1.494c-0.793-0.793-1.316-1.816-1.494-2.924s-0.003-2.243 0.502-3.245c0.504-1.002 1.312-1.82 2.307-2.336s2.129-0.706 3.239-0.542c1.132 0.168 2.18 0.695 2.989 1.504s1.337 1.857 1.505 2.989z"></path>
<path fill="" stroke="" style="" stroke-linejoin="round" stroke-linecap="round" stroke-miterlimit="4" stroke-width="2.6667" d="M23.333 8.667h0.013"></path>
</symbol>
<symbol id="icon-facebook" viewBox="0 0 32 32">
<path fill="" stroke="" style="" stroke-linejoin="round" stroke-linecap="round" stroke-miterlimit="4" stroke-width="2.6667" d="M24 2.667h-4c-1.768 0-3.464 0.702-4.714 1.953s-1.953 2.946-1.953 4.714v4h-4v5.333h4v10.667h5.333v-10.667h4l1.333-5.333h-5.333v-4c0-0.354 0.141-0.693 0.391-0.943s0.589-0.391 0.943-0.391h4v-5.333z"></path>
</symbol>
</defs>
</svg>
