<svg aria-hidden="true" style="position: absolute; width: 0; height: 0; overflow: hidden;"
    version="1.1" xmlns="http://www.w3.org/2000/svg" xmlns:xlink="http://www.w3.org/1999/xlink">
    <defs>
        <symbol id="icon-apple-podcast" viewBox="0 0 32 32">
            <path fill="#fff" style="fill: var(--color1, #fff)"
                d="M12.667 20.667c0-1.6 1.333-2.667 3.333-2.667s3.333 1.067 3.333 2.667c0 3.333-0.667 10-3.333 10s-3.333-6.667-3.333-10z"></path>
            <path fill="#fff" style="fill: var(--color1, #fff)"
                d="M4.333 14.667c0.002-6.442 5.224-11.663 11.667-11.663 6.443 0 11.667 5.223 11.667 11.667 0 4.62-2.685 8.612-6.58 10.502l-0.069 0.030c-0.129 0.932-0.285 1.728-0.481 2.507l0.034-0.161c5.3-1.88 9.096-6.937 9.096-12.883 0-7.547-6.12-13.667-13.667-13.667s-13.667 6.12-13.667 13.667c0 5.945 3.796 11.004 9.096 12.884l-0.040-0.167c-0.144-0.567-0.286-1.306-0.392-2.058l-0.014-0.124c-3.964-1.92-6.649-5.913-6.649-10.533 0-0.001 0-0.002 0-0.004v0z"></path>
            <path fill="#fff" style="fill: var(--color1, #fff)"
                d="M9 14.667c0-3.866 3.134-7 7-7s7 3.134 7 7c0 1.827-0.7 3.49-1.846 4.737l0.005-0.005c0.115 0.401 0.175 0.827 0.175 1.268 0 0.384-0.008 0.812-0.027 1.271 2.25-1.656 3.693-4.294 3.693-7.269 0-4.971-4.029-9-9-9s-9 4.029-9 9c0 2.975 1.444 5.613 3.668 7.252l0.025 0.017c-0.019-0.459-0.027-0.887-0.027-1.271 0-0.441 0.060-0.867 0.175-1.268-1.141-1.238-1.841-2.898-1.841-4.722 0-0.004 0-0.007 0-0.011v0.001z"></path>
            <path fill="#fff" style="fill: var(--color1, #fff)"
                d="M13 13.667c0 1.657 1.343 3 3 3s3-1.343 3-3v0c0-1.657-1.343-3-3-3s-3 1.343-3 3v0z"></path>
        </symbol>
        <symbol id="icon-soundcloud" viewBox="0 0 32 32">
            <path fill="#f50" style="fill: var(--color2, #f50)" d="M0 0h32v32h-32v-32z"></path>
            <path fill="#fff" style="fill: var(--color1, #fff)"
                d="M3.688 16.875l-0.188 1.375 0.188 1.375c0 0.125 0.188 0.125 0.188 0l0.188-1.375-0.188-1.375c0-0.188-0.188-0.188-0.188 0zM4.813 16c0-0.188-0.188-0.188-0.188 0l-0.313 2.25 0.25 2.188c0 0.188 0.25 0.188 0.25 0l0.25-2.188zM8.5 14.125l-0.188 4.125 0.125 2.5c0 0.5 0.438 0.5 0.438 0l0.25-2.5-0.25-4.125c0-0.313-0.375-0.313-0.375 0zM6.563 15.5l-0.25 2.75 0.188 2.5c0 0.375 0.313 0.375 0.313 0l0.25-2.5-0.25-2.75c0-0.188-0.25-0.188-0.25 0zM10.938 20.75l0.188-2.5-0.188-5.5c0-0.375-0.438-0.375-0.438 0l-0.188 5.5 0.125 2.5c0 0.5 0.5 0.5 0.5 0zM15.188 20.75l0.125-2.5-0.125-6.375c0-0.438-0.625-0.438-0.625 0l-0.125 6.375 0.125 2.5c0 0.5 0.625 0.5 0.625 0zM13.063 20.75l0.188-2.5-0.188-5.563c0-0.375-0.563-0.375-0.563 0l-0.125 5.563 0.125 2.5c0 0.5 0.563 0.5 0.563 0zM7.875 20.75l0.188-2.5-0.188-2.563c0-0.188-0.375-0.188-0.375 0l-0.188 2.563 0.188 2.5c0 0.438 0.375 0.438 0.375 0zM5.813 20.75l0.25-2.5-0.25-2.688c0-0.188-0.25-0.188-0.25 0l-0.25 2.688 0.25 2.5c0 0.25 0.25 0.25 0.25 0zM13.563 12.938l-0.125 5.313 0.063 2.5c0 0.5 0.625 0.5 0.625 0l0.125-2.5-0.125-5.313c0-0.438-0.563-0.438-0.563 0zM9.938 20.75l0.188-2.5-0.188-5.063c0-0.375-0.438-0.375-0.438 0l-0.188 5.063 0.125 2.5c0 0.5 0.5 0.5 0.5 0zM12 20.75l0.188-2.5-0.188-5.688c0-0.375-0.5-0.375-0.5 0l-0.188 5.688 0.188 2.5c0 0.5 0.5 0.5 0.5 0zM24.25 15.188c-0.313-3.563-4-5.875-7.375-4.563-0.25 0.125-0.313 0.188-0.313 0.375v9.75c0 0.188 0.125 0.375 0.313 0.375h8.563c1.688 0 3.063-1.375 3.063-3.063 0-2.313-2.188-3.563-4.25-2.875zM15.625 11.313l-0.188 6.938 0.188 2.5c0 0.5 0.625 0.5 0.625 0l0.188-2.5-0.188-6.938c0-0.438-0.625-0.438-0.625 0z"></path>
        </symbol>
        <symbol id="icon-pockedcasts" viewBox="0 0 32 32">
            <path fill="#fff" style="fill: var(--color2, #fff)"
                d="M15.659 30c7.732 0 14-6.268 14-14s-6.268-14-14-14c-7.732 0-14 6.268-14 14s6.268 14 14 14z"></path>
            <path fill="#f43e37" style="fill: var(--color3, #f43e37)"
                d="M16.186 0c-8.576 0-15.527 7.163-15.527 16s6.951 16 15.527 16c8.576 0 15.527-7.163 15.527-16s-6.951-16-15.527-16zM20.996 16.148c0-2.655-2.089-4.808-4.666-4.808s-4.666 2.153-4.666 4.808c0 2.655 2.089 4.808 4.666 4.808v2.748c-4.049 0-7.332-3.383-7.332-7.556s3.283-7.556 7.332-7.556c4.050 0 7.333 3.383 7.333 7.556h-2.666zM25.495 16.148c0-5.216-4.103-9.444-9.166-9.444s-9.165 4.229-9.165 9.444c0 5.216 4.103 9.444 9.165 9.444v3.148c-6.749 0-12.22-5.638-12.22-12.592s5.472-12.592 12.22-12.592c6.749 0 12.221 5.638 12.221 12.592h-3.055z"></path>
        </symbol>
        <symbol id="icon-spotify" viewBox="0 0 32 32">
            <path fill="#1ed760" style="fill: var(--color4, #1ed760)"
                d="M15.999 0.053c-8.809 0-15.951 7.142-15.951 15.951s7.142 15.951 15.951 15.951c8.81 0 15.951-7.141 15.951-15.951s-7.141-15.95-15.951-15.95l0-0.001zM23.314 23.058c-0.286 0.469-0.899 0.617-1.368 0.33-3.745-2.288-8.46-2.806-14.012-1.537-0.535 0.122-1.068-0.213-1.19-0.748s0.211-1.069 0.748-1.191c6.076-1.389 11.288-0.791 15.493 1.779 0.469 0.288 0.617 0.899 0.329 1.368zM25.267 18.715c-0.36 0.586-1.126 0.77-1.71 0.41-4.288-2.636-10.823-3.399-15.895-1.86-0.658 0.199-1.352-0.172-1.552-0.829-0.198-0.658 0.173-1.351 0.829-1.551 5.793-1.758 12.995-0.906 17.918 2.119 0.585 0.36 0.77 1.126 0.41 1.71v-0zM25.434 14.192c-5.141-3.054-13.623-3.334-18.531-1.845-0.788 0.239-1.622-0.206-1.861-0.994s0.206-1.622 0.994-1.861c5.635-1.71 15.001-1.38 20.92 2.134 0.71 0.421 0.943 1.336 0.522 2.044-0.419 0.709-1.337 0.943-2.044 0.522h-0.001z"></path>
        </symbol>
        <symbol id="icon-radio" viewBox="0 0 32 32">
            <path fill="#fff" style="fill: var(--color2, #fff); stroke: var(--color5, #363f46)"
                stroke="#363f46" stroke-linejoin="miter" stroke-linecap="round"
                stroke-miterlimit="4" stroke-width="2.4258"
                d="M15.938 30c7.767 0 14.063-6.296 14.063-14.063s-6.296-14.063-14.063-14.063c-7.767 0-14.063 6.296-14.063 14.063s6.296 14.063 14.063 14.063z"></path>
            <path fill="#fff" style="fill: var(--color2, #fff)"
                d="M8.303 9.999c0 0-1.945 2.194-1.945 6.027s1.945 5.938 1.945 5.938z"></path>
            <path fill="none" stroke="#fc7e0f" style="stroke: var(--color6, #fc7e0f)"
                stroke-linejoin="miter" stroke-linecap="round" stroke-miterlimit="4"
                stroke-width="2.4258"
                d="M8.303 9.999c0 0-1.945 2.194-1.945 6.027s1.945 5.938 1.945 5.938"></path>
            <path fill="#fff" style="fill: var(--color2, #fff)"
                d="M23.796 9.999c0 0 1.945 2.194 1.945 6.027s-1.945 5.938-1.945 5.938z"></path>
            <path fill="none" stroke="#fc7e0f" style="stroke: var(--color6, #fc7e0f)"
                stroke-linejoin="miter" stroke-linecap="round" stroke-miterlimit="4"
                stroke-width="2.4258"
                d="M23.796 9.999c0 0 1.945 2.194 1.945 6.027s-1.945 5.938-1.945 5.938"></path>
            <path fill="#fff" style="fill: var(--color2, #fff)"
                d="M20.694 12.563c0 0 1.31 1.631 1.278 3.455-0.040 2.194-1.262 3.399-1.262 3.399z"></path>
            <path fill="none" stroke="#fc7e0f" style="stroke: var(--color6, #fc7e0f)"
                stroke-linejoin="miter" stroke-linecap="round" stroke-miterlimit="4"
                stroke-width="2.4258"
                d="M20.694 12.563c0 0 1.31 1.631 1.278 3.455-0.040 2.194-1.262 3.399-1.262 3.399"></path>
            <path fill="#fff" style="fill: var(--color2, #fff)"
                d="M11.341 12.563c0 0-1.31 1.631-1.278 3.455 0.040 2.194 1.262 3.399 1.262 3.399z"></path>
            <path fill="none" stroke="#fc7e0f" style="stroke: var(--color6, #fc7e0f)"
                stroke-linejoin="miter" stroke-linecap="round" stroke-miterlimit="4"
                stroke-width="2.4258"
                d="M11.341 12.563c0 0-1.31 1.631-1.278 3.455 0.040 2.194 1.262 3.399 1.262 3.399"></path>
            <path fill="#363f46" style="fill: var(--color5, #363f46)"
                d="M15.936 18.121c1.206 0 2.183-0.977 2.183-2.183s-0.977-2.183-2.183-2.183c-1.206 0-2.183 0.977-2.183 2.183s0.977 2.183 2.183 2.183z"></path>
            <path fill="#363f46" style="fill: var(--color5, #363f46)"
                d="M16.305 17.977l-1.549-0.416-2.579 9.632 1.549 0.416 2.579-9.632z"></path>
            <path fill="#363f46" style="fill: var(--color5, #363f46)"
                d="M15.705 17.964l1.542-0.409 2.565 9.639-1.542 0.409-2.565-9.639z"></path>
            <path fill="#363f46" style="fill: var(--color5, #363f46)"
                d="M14.273 23.162l0.573-0.587 3.97 3.868-0.573 0.587-3.97-3.868z"></path>
            <path fill="#363f46" style="fill: var(--color5, #363f46)"
                d="M17.635 23.183l-0.518-0.525-3.936 3.909 0.518 0.525 3.936-3.909z"></path>
        </symbol>
        <symbol id="icon-logo" viewBox="0 0 155 32">
            <path fill="" style=""
                d="M12.097 24.65c-2.398 0-4.457-0.509-6.177-1.527-1.72-1.041-3.043-2.478-3.971-4.31-0.928-1.855-1.391-3.994-1.391-6.415s0.464-4.559 1.391-6.415c0.928-1.855 2.251-3.303 3.971-4.344s3.779-1.561 6.177-1.561c2.851 0 5.181 0.713 6.992 2.138 1.833 1.403 2.975 3.383 3.428 5.939h-4.785c-0.294-1.29-0.928-2.297-1.901-3.021-0.95-0.747-2.217-1.12-3.801-1.12-2.195 0-3.914 0.747-5.159 2.24s-1.867 3.541-1.867 6.143c0 2.602 0.622 4.65 1.867 6.143 1.244 1.471 2.964 2.206 5.159 2.206 1.584 0 2.851-0.339 3.801-1.018 0.973-0.701 1.606-1.663 1.901-2.885h4.785c-0.453 2.444-1.595 4.356-3.428 5.736-1.81 1.38-4.141 2.070-6.992 2.070zM31.385 24.65c-1.448 0-2.636-0.226-3.564-0.679-0.928-0.475-1.618-1.097-2.070-1.867s-0.679-1.618-0.679-2.545c0-1.561 0.611-2.828 1.833-3.801s3.055-1.459 5.498-1.459h4.276v-0.407c0-1.154-0.328-2.002-0.984-2.545s-1.471-0.815-2.444-0.815c-0.882 0-1.652 0.215-2.308 0.645-0.656 0.407-1.063 1.018-1.222 1.833h-4.242c0.113-1.222 0.52-2.285 1.222-3.19 0.724-0.905 1.652-1.595 2.783-2.070 1.131-0.498 2.398-0.747 3.801-0.747 2.398 0 4.288 0.6 5.668 1.799s2.070 2.896 2.070 5.091v10.351h-3.699l-0.407-2.715c-0.498 0.905-1.199 1.652-2.104 2.24-0.882 0.588-2.025 0.882-3.428 0.882zM32.369 21.256c1.244 0 2.206-0.407 2.885-1.222 0.701-0.815 1.143-1.821 1.324-3.021h-3.699c-1.154 0-1.98 0.215-2.478 0.645-0.498 0.407-0.747 0.916-0.747 1.527 0 0.656 0.249 1.165 0.747 1.527s1.154 0.543 1.969 0.543zM51.448 24.65c-1.493 0-2.806-0.238-3.937-0.713-1.131-0.498-2.036-1.177-2.715-2.036s-1.086-1.855-1.222-2.987h4.378c0.136 0.656 0.498 1.222 1.086 1.697 0.611 0.453 1.392 0.679 2.342 0.679s1.64-0.192 2.070-0.577c0.452-0.385 0.679-0.826 0.679-1.324 0-0.724-0.317-1.21-0.95-1.459-0.634-0.271-1.516-0.532-2.647-0.781-0.724-0.158-1.459-0.351-2.206-0.577s-1.437-0.509-2.070-0.848c-0.611-0.362-1.109-0.815-1.493-1.358-0.385-0.566-0.577-1.256-0.577-2.070 0-1.493 0.588-2.749 1.765-3.767 1.199-1.018 2.873-1.527 5.023-1.527 1.991 0 3.575 0.464 4.752 1.392 1.199 0.928 1.912 2.206 2.138 3.835h-4.107c-0.249-1.244-1.188-1.867-2.817-1.867-0.815 0-1.448 0.158-1.901 0.475-0.43 0.317-0.645 0.713-0.645 1.188 0 0.498 0.328 0.894 0.984 1.188s1.527 0.566 2.613 0.815c1.177 0.271 2.251 0.577 3.224 0.916 0.995 0.317 1.787 0.803 2.376 1.459 0.588 0.634 0.882 1.55 0.882 2.749 0.023 1.041-0.249 1.98-0.815 2.817s-1.38 1.493-2.444 1.968c-1.063 0.475-2.319 0.713-3.767 0.713zM68.614 24.242c-1.765 0-3.179-0.43-4.242-1.29s-1.595-2.387-1.595-4.582v-7.331h-2.885v-3.631h2.885l0.509-4.514h3.835v4.514h4.548v3.631h-4.548v7.365c0 0.815 0.17 1.38 0.509 1.697 0.362 0.294 0.973 0.441 1.833 0.441h2.104v3.699h-2.953zM80.523 24.65c-1.448 0-2.636-0.226-3.564-0.679-0.928-0.475-1.618-1.097-2.070-1.867s-0.679-1.618-0.679-2.545c0-1.561 0.611-2.828 1.833-3.801s3.055-1.459 5.498-1.459h4.276v-0.407c0-1.154-0.328-2.002-0.984-2.545s-1.471-0.815-2.444-0.815c-0.882 0-1.652 0.215-2.308 0.645-0.656 0.407-1.063 1.018-1.222 1.833h-4.242c0.113-1.222 0.52-2.285 1.222-3.19 0.724-0.905 1.652-1.595 2.783-2.070 1.131-0.498 2.398-0.747 3.801-0.747 2.398 0 4.288 0.6 5.668 1.799s2.070 2.896 2.070 5.091v10.351h-3.699l-0.407-2.715c-0.498 0.905-1.199 1.652-2.104 2.24-0.882 0.588-2.025 0.882-3.428 0.882zM81.507 21.256c1.244 0 2.206-0.407 2.885-1.222 0.701-0.815 1.143-1.821 1.324-3.021h-3.699c-1.154 0-1.98 0.215-2.478 0.645-0.498 0.407-0.747 0.916-0.747 1.527 0 0.656 0.249 1.165 0.747 1.527s1.154 0.543 1.969 0.543zM96.755 24.242l-4.921-16.834h4.31l2.918 12.116 3.394-12.116h4.819l3.394 12.116 2.953-12.116h4.31l-4.955 16.834h-4.514l-3.598-12.591-3.598 12.591h-4.514zM124.937 24.65c-1.448 0-2.636-0.226-3.564-0.679-0.927-0.475-1.617-1.097-2.070-1.867s-0.679-1.618-0.679-2.545c0-1.561 0.611-2.828 1.833-3.801s3.055-1.459 5.498-1.459h4.276v-0.407c0-1.154-0.328-2.002-0.984-2.545-0.655-0.543-1.47-0.815-2.444-0.815-0.882 0-1.651 0.215-2.308 0.645-0.656 0.407-1.063 1.018-1.222 1.833h-4.242c0.113-1.222 0.521-2.285 1.222-3.19 0.724-0.905 1.652-1.595 2.783-2.070 1.132-0.498 2.399-0.747 3.801-0.747 2.399 0 4.288 0.6 5.668 1.799s2.070 2.896 2.070 5.091v10.351h-3.699l-0.407-2.715c-0.497 0.905-1.199 1.652-2.104 2.24-0.882 0.588-2.025 0.882-3.428 0.882zM125.921 21.256c1.245 0 2.206-0.407 2.885-1.222 0.702-0.815 1.143-1.821 1.324-3.021h-3.699c-1.154 0-1.979 0.215-2.478 0.645-0.497 0.407-0.747 0.916-0.747 1.527 0 0.656 0.249 1.165 0.747 1.527s1.154 0.543 1.969 0.543zM139.583 31.709l3.903-8.587h-1.018l-6.55-15.714h4.718l4.718 11.845 4.921-11.845h4.616l-10.691 24.301h-4.616z"></path>
        </symbol>
        <symbol id="icon-star" viewBox="0 0 34 32">
            <path fill="" style=""
                d="M16.965 25.784l7.812 4.725c1.431 0.866 3.181-0.414 2.805-2.033l-2.071-8.885 6.908-5.986c1.261-1.092 0.584-3.162-1.073-3.294l-9.092-0.772-3.558-8.395c-0.64-1.525-2.824-1.525-3.464 0l-3.558 8.376-9.092 0.772c-1.656 0.132-2.334 2.202-1.073 3.294l6.908 5.986-2.071 8.885c-0.376 1.619 1.374 2.899 2.805 2.033l7.812-4.706z"></path>
        </symbol>
        <symbol id="icon-twitter" viewBox="0 0 32 32">
            <path fill="" stroke="" style="" stroke-linejoin="round" stroke-linecap="round"
                stroke-miterlimit="4" stroke-width="2.6667"
                d="M30.667 4c-1.277 0.901-2.691 1.589-4.187 2.040-0.803-0.923-1.87-1.578-3.057-1.875s-2.437-0.222-3.58 0.214c-1.143 0.436-2.125 1.213-2.812 2.226s-1.047 2.211-1.031 3.435v1.333c-2.343 0.061-4.665-0.459-6.759-1.513s-3.894-2.609-5.241-4.527c0 0-5.333 12 6.667 17.333-2.746 1.864-6.017 2.799-9.333 2.667 12 6.667 26.667 0 26.667-15.333 0-0.373-0.040-0.747-0.107-1.107 1.361-1.342 2.321-3.036 2.773-4.893z"></path>
        </symbol>
        <symbol id="icon-instagram" viewBox="0 0 32 32">
            <path fill="" stroke="" style="" stroke-linejoin="round" stroke-linecap="round"
                stroke-miterlimit="4" stroke-width="2.6667"
                d="M22.667 2.667h-13.333c-3.682 0-6.667 2.985-6.667 6.667v13.333c0 3.682 2.985 6.667 6.667 6.667h13.333c3.682 0 6.667-2.985 6.667-6.667v-13.333c0-3.682-2.985-6.667-6.667-6.667z"></path>
            <path fill="" stroke="" style="" stroke-linejoin="round" stroke-linecap="round"
                stroke-miterlimit="4" stroke-width="2.6667"
                d="M21.333 15.16c0.165 1.11-0.025 2.243-0.542 3.239s-1.334 1.803-2.336 2.308c-1.002 0.504-2.138 0.68-3.245 0.502s-2.131-0.701-2.924-1.494c-0.793-0.793-1.316-1.816-1.494-2.924s-0.003-2.243 0.502-3.245c0.504-1.002 1.312-1.82 2.307-2.336s2.129-0.706 3.239-0.542c1.132 0.168 2.18 0.695 2.989 1.504s1.337 1.857 1.505 2.989z"></path>
            <path fill="" stroke="" style="" stroke-linejoin="round" stroke-linecap="round"
                stroke-miterlimit="4" stroke-width="2.6667" d="M23.333 8.667h0.013"></path>
        </symbol>
        <symbol id="icon-facebook" viewBox="0 0 32 32">
            <path fill="" stroke="" style="" stroke-linejoin="round" stroke-linecap="round"
                stroke-miterlimit="4" stroke-width="2.6667"
                d="M24 2.667h-4c-1.768 0-3.464 0.702-4.714 1.953s-1.953 2.946-1.953 4.714v4h-4v5.333h4v10.667h5.333v-10.667h4l1.333-5.333h-5.333v-4c0-0.354 0.141-0.693 0.391-0.943s0.589-0.391 0.943-0.391h4v-5.333z"></path>
        </symbol>
    </defs>
</svg>